<svg width="65" height="64" viewBox="0 0 65 64" fill="none" xmlns="http://www.w3.org/2000/svg">
<path d="M4.97511 1.97731C3.32847 1.97731 1.98442 3.3128 1.98442 4.95411V46.2219C1.98442 47.8632 3.32847 49.1994 4.97511 49.1994H13.335C13.8838 49.1994 14.3271 49.642 14.3271 50.1877V61.0863L30.7161 49.3839C30.885 49.2639 31.0891 49.1994 31.2932 49.1994H60.0249C61.6715 49.1994 63.0156 47.8632 63.0156 46.2219V4.95411C63.0156 3.3128 61.6715 1.97731 60.0249 1.97731H4.97511ZM13.335 64C13.1801 64 13.0253 63.9635 12.8776 63.8906C12.5468 63.7208 12.3428 63.3813 12.3428 63.011V51.1767H4.97511C2.23072 51.1767 0 48.9539 0 46.2219V4.95411C0 2.2228 2.23072 0 4.97511 0H60.0249C62.7693 0 65 2.2228 65 4.95411V46.2219C65 48.9539 62.7693 51.1767 60.0249 51.1767H31.6168L13.912 63.8148C13.7431 63.9376 13.539 64 13.335 64Z" fill="#121C51"/>
<path d="M32.5036 13.4128C25.8335 13.4128 20.4136 18.8354 20.4136 25.5004C20.4136 32.1646 25.8335 37.5872 32.5036 37.5872C39.1665 37.5872 44.5864 32.1646 44.5864 25.5004C44.5864 18.8354 39.1665 13.4128 32.5036 13.4128ZM32.5036 39C25.0592 39 19 32.9445 19 25.5004C19 18.0562 25.0592 12 32.5036 12C39.9479 12 46 18.0562 46 25.5004C46 32.9445 39.9479 39 32.5036 39Z" fill="#121C51"/>
<path d="M32.5035 14.0662C26.1982 14.0662 21.0695 19.1952 21.0695 25.5003C21.0695 31.8048 26.1982 36.9338 32.5035 36.9338C38.8019 36.9338 43.9305 31.8048 43.9305 25.5003C43.9305 19.1952 38.8019 14.0662 32.5035 14.0662ZM32.5035 37.6225C25.8175 37.6225 20.3774 32.1841 20.3774 25.5003C20.3774 18.8152 25.8175 13.3774 32.5035 13.3774C39.1825 13.3774 44.6226 18.8152 44.6226 25.5003C44.6226 32.1841 39.1825 37.6225 32.5035 37.6225ZM32.5035 12.6887C25.4368 12.6887 19.6921 18.4359 19.6921 25.5003C19.6921 32.5641 25.4368 38.3113 32.5035 38.3113C39.5632 38.3113 45.3079 32.5641 45.3079 25.5003C45.3079 18.4359 39.5632 12.6887 32.5035 12.6887ZM32.5035 39C25.0562 39 19 32.9441 19 25.5003C19 18.0559 25.0562 12 32.5035 12C39.9439 12 46 18.0559 46 25.5003C46 32.9441 39.9439 39 32.5035 39Z" fill="#121C51"/>
<path d="M36 30C36 32.2089 34.4355 34 32.5037 34C30.5646 34 29 32.2089 29 30C29 27.7911 30.5646 26 32.5037 26C34.4355 26 36 27.7911 36 30Z" fill="#121C51"/>
<path d="M32.5033 25.9403C31.0296 25.9403 29.8403 27.5369 29.8403 29.5C29.8403 31.4624 31.0296 33.0597 32.5033 33.0597C33.9705 33.0597 35.1597 31.4624 35.1597 29.5C35.1597 27.5369 33.9705 25.9403 32.5033 25.9403ZM32.5033 34C30.5707 34 29 31.9811 29 29.5C29 27.0189 30.5707 25 32.5033 25C34.4294 25 36 27.0189 36 29.5C36 31.9811 34.4294 34 32.5033 34Z" fill="#121C51"/>
<path d="M30 22.0003C30 22.5521 29.3285 23 28.5 23C27.6715 23 27 22.5521 27 22.0003C27 21.4473 27.6715 21 28.5 21C29.3285 21 30 21.4473 30 22.0003Z" fill="#121C51"/>
<path d="M28.5 21.6726C28.0405 21.6726 27.6689 22.0437 27.6689 22.5C27.6689 22.9563 28.0405 23.3281 28.5 23.3281C28.9527 23.3281 29.3243 22.9563 29.3243 22.5C29.3243 22.0437 28.9527 21.6726 28.5 21.6726ZM28.5 24C27.6689 24 27 23.3274 27 22.5C27 21.6726 27.6689 21 28.5 21C29.3243 21 30 21.6726 30 22.5C30 23.3274 29.3243 24 28.5 24Z" fill="#121C51"/>
<path d="M38 22.0003C38 22.5521 37.3304 23 36.5043 23C35.6782 23 35 22.5521 35 22.0003C35 21.4473 35.6782 21 36.5043 21C37.3304 21 38 21.4473 38 22.0003Z" fill="#121C51"/>
<path d="M36.5 21.6726C36.0405 21.6726 35.6689 22.0437 35.6689 22.5C35.6689 22.9563 36.0405 23.3281 36.5 23.3281C36.9527 23.3281 37.3243 22.9563 37.3243 22.5C37.3243 22.0437 36.9527 21.6726 36.5 21.6726ZM36.5 24C35.6689 24 35 23.3274 35 22.5C35 21.6726 35.6689 21 36.5 21C37.3243 21 38 21.6726 38 22.5C38 23.3274 37.3243 24 36.5 24Z" fill="#121C51"/>
<path d="M39.6365 20C39.483 20 39.3442 19.9055 39.2931 19.7525C38.9568 18.7841 38.3648 18.1555 37.5462 17.8832C36.9396 17.683 36.4206 17.7565 36.4133 17.7572C36.216 17.788 36.0333 17.6485 36.0041 17.4452C35.9748 17.2412 36.1064 17.0507 36.3037 17.0192C36.3329 17.0147 38.9787 16.6329 39.98 19.5019C40.0458 19.6962 39.9435 19.9092 39.7535 19.979C39.717 19.9932 39.6731 20 39.6365 20Z" fill="#121C51"/>
<path d="M25.3642 20C25.3204 20 25.2765 19.9932 25.24 19.979C25.05 19.9092 24.955 19.6962 25.0208 19.5019C26.0146 16.6325 28.66 17.0151 28.6892 17.0189C28.8865 17.0504 29.0253 17.2409 28.9961 17.445C28.9596 17.6483 28.7769 17.7878 28.5796 17.757C28.4919 17.7443 26.4969 17.4742 25.7077 19.7524C25.6493 19.9055 25.5104 20 25.3642 20Z" fill="#121C51"/>
</svg>
