<svg width="81" height="57" viewBox="0 0 81 57" fill="none" xmlns="http://www.w3.org/2000/svg">
<path d="M60.1304 47.615C60.2982 47.615 60.4644 47.6513 60.6174 47.7226L71.4868 52.7799L67.5116 47.615C67.2885 47.3248 67.2141 46.9464 67.3116 46.5933C67.4091 46.2402 67.6666 45.9539 68.0066 45.8208C74.5926 43.2388 78.6838 38.4271 78.6838 33.2636C78.6838 27.1608 73.0501 21.7403 64.781 19.679C64.9431 20.6685 65.0248 21.6737 65.0248 22.6837C65.0248 26.1461 64.0719 29.4807 62.1924 32.5944C60.4627 35.4662 58.0195 38.0219 54.9309 40.1891C52.0422 42.2154 48.7559 43.8002 45.1337 44.9167C48.7308 46.7339 53.0561 47.7166 57.5851 47.7166C58.396 47.7166 59.2217 47.6836 60.039 47.6184C60.0695 47.616 60.0999 47.615 60.1304 47.615ZM75.303 57C75.1392 57 74.9731 56.9647 74.8167 56.892L59.9167 49.9595C59.1389 50.0143 58.3561 50.0422 57.5851 50.0422C51.5736 50.0422 45.8652 48.4229 41.5118 45.4828C41.1292 45.2245 40.936 44.763 41.019 44.308C41.1021 43.853 41.4461 43.4907 41.8949 43.3855C46.3137 42.3503 50.2532 40.6337 53.6041 38.2825C56.4261 36.3029 58.6492 33.9837 60.2111 31.39C61.8685 28.6436 62.7089 25.7146 62.7089 22.6837C62.7089 21.253 62.521 19.8348 62.1509 18.4676C62.0464 18.0822 62.1469 17.6695 62.4162 17.3756C62.6858 17.0813 63.0878 16.9471 63.478 17.0191C73.7947 18.9257 81 25.6053 81 33.2636C81 39.011 76.9246 44.3194 70.2622 47.3857L76.2198 55.126C76.5464 55.5501 76.5417 56.1434 76.2088 56.5621C75.9837 56.846 75.6474 57 75.303 57Z" fill="#121C51"/>
<path d="M29.9995 2.34802C14.7492 2.34802 2.34252 10.879 2.34252 21.3648C2.34252 25.1535 3.97398 28.8187 7.06075 31.9636C10.1479 35.1089 14.4599 37.5292 19.5308 38.9628C19.8459 39.0518 20.1091 39.2691 20.2575 39.5618C20.4052 39.8542 20.4245 40.1958 20.31 40.5027L16.8096 49.908L31.24 40.5255C31.4148 40.4117 31.6167 40.3469 31.8247 40.3374C46.3104 39.6847 57.6578 31.3511 57.6578 21.3648C57.6578 10.879 45.2501 2.34802 29.9995 2.34802ZM14.4735 54C14.213 54 13.9535 53.9134 13.7404 53.7419C13.3464 53.4248 13.1994 52.8903 13.3759 52.4156L17.6785 40.8562C12.739 39.2783 8.50997 36.788 5.39101 33.6104C1.86419 30.0173 0 25.7827 0 21.3648C0 15.5764 3.17621 10.1646 8.94358 6.12488C14.5829 2.17552 22.061 3.8147e-06 29.9995 3.8147e-06C37.9376 3.8147e-06 45.4157 2.17552 51.0554 6.12488C56.8235 10.1646 60 15.5764 60 21.3648C60 26.9087 57.0501 32.1561 51.6933 36.1415C46.5523 39.9655 39.6582 42.2776 32.2499 42.6674L15.1107 53.8112C14.9162 53.9375 14.6944 54 14.4735 54Z" fill="#121C51"/>
<path d="M26.8043 30.694C26.8043 31.9684 27.8089 33 29.0871 33C30.3653 33 31.4001 31.9684 31.4001 30.694C31.4001 29.4195 30.3653 28.4183 29.0871 28.4183C27.8089 28.4183 26.8043 29.4195 26.8043 30.694ZM31.8869 25.0196C31.6741 25.4749 31.5218 25.9905 31.4609 26.5675H26.8349C26.9566 24.9289 27.3826 23.5327 28.1434 22.2586C29.1479 20.5896 30.6389 19.8312 31.8566 18.4047C32.1915 17.9801 32.374 17.4641 32.374 16.9181C32.374 15.6433 31.3389 14.6121 30.0913 14.6121C28.6914 14.6121 27.3826 15.0367 26.2873 15.7347L23 12.4274C24.9479 10.9099 27.4132 10 30.0913 10C33.8956 10 37 13.0948 37 16.9181C37 21.2267 33.4088 21.7426 31.8869 25.0196Z" fill="#121C51"/>
</svg>
