<svg width="12" height="12" viewBox="0 0 12 12" fill="none" xmlns="http://www.w3.org/2000/svg">
<path d="M6 10.5C8.48528 10.5 10.5 8.48528 10.5 6C10.5 3.51472 8.48528 1.5 6 1.5C3.51472 1.5 1.5 3.51472 1.5 6C1.5 8.48528 3.51472 10.5 6 10.5Z" stroke="#121C51"/>
<path d="M5.7998 3.6001H6.1998L5.9998 6.5001L5.7998 3.6001Z" stroke="#121C51" stroke-linejoin="round"/>
<path d="M5.9999 8.8001C6.33127 8.8001 6.5999 8.53147 6.5999 8.2001C6.5999 7.86873 6.33127 7.6001 5.9999 7.6001C5.66853 7.6001 5.3999 7.86873 5.3999 8.2001C5.3999 8.53147 5.66853 8.8001 5.9999 8.8001Z" fill="#121C51"/>
</svg>
