<svg width="80" height="80" viewBox="0 0 76 75" fill="none" xmlns="http://www.w3.org/2000/svg">
    <mask id="path-1-inside-1_60_371" fill="white">
        <path fill-rule="evenodd" clip-rule="evenodd" d="M35.9089 0.807373C20.857 0.807373 8.61131 13.1217 8.61131 28.2591V30.3913C8.27112 30.4261 7.92359 30.4867 7.57012 30.5749C7.57012 30.5749 4.17383 30.8005 2.12198 33.3648C0.0726203 35.9312 0.0726203 55.1789 2.12198 57.7432C4.17383 60.3095 7.57012 60.533 7.57012 60.533C8.78127 60.8373 9.92268 60.8145 10.9383 60.5351L10.9382 60.5355C13.3676 59.8608 15.0459 57.6669 15.0459 54.6618V36.4448C15.0459 34.1822 14.0931 32.3789 12.5842 31.3395V28.2591C12.5842 15.3197 23.0471 4.79346 35.9089 4.79346L38.2923 4.79348H40.6763C53.5381 4.79348 64.0026 15.3197 64.0026 28.2591V31.3378C62.492 32.3769 61.5402 34.181 61.5402 36.4452V54.6622C61.5402 56.9881 62.5432 58.828 64.1241 59.8537L62.1472 65.4513C61.0851 68.4626 58.2263 70.4847 55.0336 70.4847H55.0297L49.5365 70.4807C49.0946 69.086 47.7895 68.0751 46.249 68.0751H42.9239C41.0198 68.0751 39.4757 69.6191 39.4757 71.5232H40.8392V71.5233H39.4757C39.4757 73.4274 41.0198 74.9713 42.9239 74.9713H46.249C47.7953 74.9713 49.1042 73.9529 49.5414 72.5503L55.028 72.5543H55.0336C59.1017 72.5543 62.7447 69.9776 64.0997 66.1426L66.0456 60.6308C66.956 60.8153 67.9591 60.7983 69.0142 60.5334C69.0142 60.5334 72.4097 60.3099 74.4601 57.7435C76.5134 55.1793 76.5134 35.9315 74.4601 33.3652C72.4097 30.8009 69.0142 30.5753 69.0142 30.5753C68.6608 30.4872 68.3132 30.4265 67.973 30.3918V28.2591C67.973 13.1218 55.7282 0.807388 40.6763 0.807388L38.2923 0.807373H35.9089Z" />
    </mask>
    <path d="M8.61131 30.3913L9.01756 34.3706L12.6113 34.0037V30.3913H8.61131ZM7.57012 30.5749L7.83522 34.5661L8.19172 34.5425L8.53839 34.456L7.57012 30.5749ZM2.12198 33.3648L-1.00125 30.8657L-1.0037 30.8688L2.12198 33.3648ZM2.12198 57.7432L-1.00272 60.2404L-1.00223 60.241L2.12198 57.7432ZM7.57012 60.533L8.54463 56.6536L8.19377 56.5654L7.8328 56.5417L7.57012 60.533ZM10.9383 60.5351L14.9349 60.6982L15.1583 55.2255L9.8772 56.6784L10.9383 60.5351ZM10.9382 60.5355L6.94157 60.3724L6.71762 65.8591L12.0086 64.3896L10.9382 60.5355ZM12.5842 31.3395H8.5842V33.4414L10.3152 34.6337L12.5842 31.3395ZM35.9089 4.79346L35.9089 0.793461H35.9089V4.79346ZM38.2923 4.79348L38.2922 8.79348H38.2923V4.79348ZM64.0026 31.3378L66.2695 34.6335L68.0026 33.4414V31.3378H64.0026ZM64.1241 59.8537L67.8958 61.1858L68.9454 58.2137L66.3013 56.4981L64.1241 59.8537ZM62.1472 65.4513L58.3755 64.1192L58.375 64.1208L62.1472 65.4513ZM55.0297 70.4847L55.0268 74.4847H55.0297V70.4847ZM49.5365 70.4807L45.7235 71.6891L46.6075 74.4785L49.5336 74.4807L49.5365 70.4807ZM39.4757 71.5232H35.4757V75.5232H39.4757V71.5232ZM40.8392 71.5232H44.8392V67.5232H40.8392V71.5232ZM40.8392 71.5233V75.5233H44.8392V71.5233H40.8392ZM39.4757 71.5233V67.5233H35.4757V71.5233H39.4757ZM49.5414 72.5503L49.5444 68.5503L46.5991 68.5482L45.7226 71.36L49.5414 72.5503ZM55.028 72.5543L55.0251 76.5543H55.028V72.5543ZM64.0997 66.1426L67.8712 67.4751L67.8716 67.4742L64.0997 66.1426ZM66.0456 60.6308L66.84 56.7105L63.4315 56.0198L62.2737 59.2992L66.0456 60.6308ZM69.0142 60.5334L68.7515 56.5421L68.3908 56.5658L68.0402 56.6538L69.0142 60.5334ZM74.4601 57.7435L71.3377 55.2434L71.335 55.2468L74.4601 57.7435ZM74.4601 33.3652L71.336 35.8632L71.3367 35.8641L74.4601 33.3652ZM69.0142 30.5753L68.0464 34.4565L68.3928 34.5428L68.7491 34.5665L69.0142 30.5753ZM67.973 30.3918H63.973V34.0041L67.5667 34.3711L67.973 30.3918ZM40.6763 0.807388L40.6763 4.80739H40.6763V0.807388ZM38.2923 0.807373L38.2923 -3.19263H38.2923V0.807373ZM12.6113 28.2591C12.6113 15.3097 23.0873 4.80737 35.9089 4.80737V-3.19263C18.6267 -3.19263 4.61131 10.9338 4.61131 28.2591H12.6113ZM12.6113 30.3913V28.2591H4.61131V30.3913H12.6113ZM8.53839 34.456C8.71238 34.4126 8.87215 34.3855 9.01756 34.3706L8.20506 26.412C7.67009 26.4666 7.1348 26.5609 6.60185 26.6939L8.53839 34.456ZM5.24521 35.8639C5.63437 35.3775 6.23124 35.0244 6.90631 34.7943C7.22559 34.6854 7.5073 34.6235 7.69565 34.5906C7.78776 34.5745 7.85142 34.5664 7.87863 34.5633C7.89206 34.5617 7.89592 34.5615 7.88916 34.5621C7.88576 34.5624 7.87967 34.5629 7.87074 34.5636C7.86627 34.5639 7.86109 34.5643 7.85517 34.5648C7.85222 34.565 7.84908 34.5652 7.84575 34.5654C7.84409 34.5655 7.84238 34.5656 7.84063 34.5658C7.83975 34.5658 7.8384 34.5659 7.83796 34.5659C7.83659 34.566 7.83522 34.5661 7.57012 30.5749C7.30502 26.5837 7.30361 26.5838 7.3022 26.5839C7.30171 26.5839 7.30028 26.584 7.2993 26.5841C7.29734 26.5842 7.29532 26.5844 7.29324 26.5845C7.28909 26.5848 7.28472 26.5851 7.28012 26.5854C7.27093 26.5861 7.26084 26.5869 7.24989 26.5877C7.22798 26.5894 7.20256 26.5915 7.17379 26.5941C7.11628 26.5993 7.04517 26.6064 6.96172 26.616C6.79518 26.6352 6.57748 26.6648 6.31912 26.7099C5.80655 26.7994 5.11094 26.9542 4.32467 27.2223C2.78864 27.746 0.661447 28.7878 -1.00125 30.8657L5.24521 35.8639ZM5.24669 55.2459C5.5754 55.6572 5.51091 55.8254 5.33251 55.1042C5.19611 54.5528 5.05999 53.763 4.9425 52.7516C4.709 50.7415 4.58496 48.1761 4.58496 45.5548C4.58496 42.9335 4.70899 40.3678 4.9425 38.3575C5.06 37.346 5.19612 36.5559 5.33257 36.0042C5.51093 35.2829 5.57558 35.4502 5.24767 35.8608L-1.0037 30.8688C-1.84395 31.921 -2.2276 33.2511 -2.43349 34.0837C-2.68131 35.0858 -2.8654 36.2406 -3.00407 37.4345C-3.2829 39.835 -3.41504 42.7228 -3.41504 45.5548C-3.41504 48.3867 -3.2829 51.2744 -3.00406 53.6747C-2.86539 54.8685 -2.68129 56.0232 -2.43344 57.0252C-2.22758 57.8574 -1.84378 59.188 -1.00272 60.2404L5.24669 55.2459ZM7.57012 60.533C7.8328 56.5417 7.83418 56.5418 7.83554 56.5419C7.83598 56.5419 7.83734 56.542 7.83822 56.542C7.83997 56.5422 7.84169 56.5423 7.84335 56.5424C7.84668 56.5426 7.84983 56.5428 7.85279 56.543C7.85871 56.5435 7.86391 56.5439 7.86838 56.5442C7.87734 56.5449 7.88346 56.5454 7.88688 56.5457C7.89368 56.5463 7.88988 56.5461 7.8765 56.5445C7.8494 56.5414 7.78586 56.5334 7.69389 56.5174C7.5058 56.4846 7.22443 56.4229 6.90552 56.3142C6.23139 56.0845 5.63518 55.7318 5.24619 55.2453L-1.00223 60.241C0.660631 62.3209 2.78849 63.3631 4.32547 63.8868C5.11211 64.1548 5.80805 64.3093 6.32089 64.3987C6.57937 64.4437 6.7972 64.4732 6.96385 64.4923C7.04735 64.5019 7.11851 64.5089 7.17607 64.5141C7.20487 64.5167 7.23031 64.5187 7.25224 64.5204C7.26321 64.5213 7.2733 64.522 7.28251 64.5227C7.28711 64.523 7.29149 64.5233 7.29564 64.5236C7.29772 64.5238 7.29974 64.5239 7.30171 64.524C7.30269 64.5241 7.30412 64.5242 7.30461 64.5242C7.30603 64.5243 7.30744 64.5244 7.57012 60.533ZM9.8772 56.6784C9.56147 56.7653 9.12239 56.7987 8.54463 56.6536L6.59561 64.4125C8.44016 64.8759 10.2839 64.8638 11.9993 64.3918L9.8772 56.6784ZM14.9349 60.6986L14.9349 60.6982L6.94158 60.372L6.94157 60.3724L14.9349 60.6986ZM11.0459 54.6618C11.0459 55.4105 10.8425 55.8766 10.6526 56.1414C10.4658 56.4019 10.2112 56.586 9.86783 56.6814L12.0086 64.3896C16.3454 63.1852 19.0459 59.2743 19.0459 54.6618H11.0459ZM11.0459 36.4448V54.6618H19.0459V36.4448H11.0459ZM10.3152 34.6337C10.6203 34.8438 11.0459 35.3452 11.0459 36.4448H19.0459C19.0459 33.0191 17.566 29.9139 14.8532 28.0454L10.3152 34.6337ZM8.5842 28.2591V31.3395H16.5842V28.2591H8.5842ZM35.9089 0.793461C20.8152 0.793461 8.5842 13.1333 8.5842 28.2591H16.5842C16.5842 17.5061 25.2789 8.79346 35.9089 8.79346V0.793461ZM38.2923 0.793476L35.9089 0.793461L35.9089 8.79346L38.2922 8.79348L38.2923 0.793476ZM40.6763 0.793476H38.2923V8.79348H40.6763V0.793476ZM68.0026 28.2591C68.0026 13.133 55.7696 0.793476 40.6763 0.793476V8.79348C51.3066 8.79348 60.0026 17.5065 60.0026 28.2591H68.0026ZM68.0026 31.3378V28.2591H60.0026V31.3378H68.0026ZM65.5402 36.4452C65.5402 35.3417 65.9665 34.8419 66.2695 34.6335L61.7358 28.0422C59.0175 29.9119 57.5402 33.0204 57.5402 36.4452H65.5402ZM65.5402 54.6622V36.4452H57.5402V54.6622H65.5402ZM66.3013 56.4981C65.9859 56.2935 65.5402 55.794 65.5402 54.6622H57.5402C57.5402 58.1821 59.1005 61.3624 61.9469 63.2093L66.3013 56.4981ZM65.9189 66.7833L67.8958 61.1858L60.3524 58.5217L58.3755 64.1192L65.9189 66.7833ZM55.0336 74.4847C59.9218 74.4847 64.2928 71.3935 65.9194 66.7818L58.375 64.1208C57.8773 65.5318 56.5308 66.4847 55.0336 66.4847V74.4847ZM55.0297 74.4847H55.0336V66.4847H55.0297V74.4847ZM49.5336 74.4807L55.0268 74.4847L55.0326 66.4847L49.5395 66.4807L49.5336 74.4807ZM53.3496 69.2722C52.3962 66.2639 49.5834 64.0751 46.249 64.0751V72.0751C45.9957 72.0751 45.7929 71.9082 45.7235 71.6891L53.3496 69.2722ZM46.249 64.0751H42.9239V72.0751H46.249V64.0751ZM42.9239 64.0751C38.811 64.0751 35.4757 67.4097 35.4757 71.5232H43.4757C43.4757 71.8285 43.2287 72.0751 42.9239 72.0751V64.0751ZM39.4757 75.5232H40.8392V67.5232H39.4757V75.5232ZM44.8392 71.5233V71.5232H36.8392V71.5233H44.8392ZM39.4757 75.5233H40.8392V67.5233H39.4757V75.5233ZM42.9239 70.9713C43.2286 70.9713 43.4757 71.2179 43.4757 71.5233H35.4757C35.4757 75.6369 38.811 78.9713 42.9239 78.9713V70.9713ZM46.249 70.9713H42.9239V78.9713H46.249V70.9713ZM45.7226 71.36C45.7914 71.1394 45.9948 70.9713 46.249 70.9713V78.9713C49.5957 78.9713 52.4171 76.7665 53.3602 73.7406L45.7226 71.36ZM55.031 68.5543L49.5444 68.5503L49.5385 76.5503L55.0251 76.5543L55.031 68.5543ZM55.0336 68.5543H55.028V76.5543H55.0336V68.5543ZM60.3282 64.81C59.538 67.0464 57.4064 68.5543 55.0336 68.5543V76.5543C60.7971 76.5543 65.9514 72.9088 67.8712 67.4751L60.3282 64.81ZM62.2737 59.2992L60.3279 64.8109L67.8716 67.4742L69.8174 61.9624L62.2737 59.2992ZM68.0402 56.6538C67.5331 56.7811 67.1347 56.7702 66.84 56.7105L65.2512 64.5512C66.7772 64.8604 68.3851 64.8155 69.9883 64.413L68.0402 56.6538ZM71.335 55.2468C70.9468 55.7327 70.3514 56.0852 69.6778 56.3147C69.3592 56.4233 69.0781 56.485 68.8901 56.5178C68.7982 56.5338 68.7347 56.5418 68.7077 56.5449C68.6943 56.5465 68.6906 56.5467 68.6974 56.5461C68.7008 56.5458 68.7069 56.5453 68.7159 56.5446C68.7204 56.5442 68.7256 56.5439 68.7315 56.5434C68.7345 56.5432 68.7376 56.543 68.7409 56.5428C68.7426 56.5427 68.7443 56.5425 68.7461 56.5424C68.747 56.5424 68.7483 56.5423 68.7487 56.5422C68.7501 56.5422 68.7515 56.5421 69.0142 60.5334C69.277 64.5248 69.2784 64.5247 69.2798 64.5246C69.2803 64.5246 69.2817 64.5245 69.2827 64.5244C69.2847 64.5243 69.2867 64.5241 69.2888 64.524C69.2929 64.5237 69.2973 64.5234 69.3019 64.5231C69.3111 64.5224 69.3212 64.5217 69.3322 64.5208C69.3541 64.5191 69.3796 64.517 69.4084 64.5145C69.4659 64.5093 69.5371 64.5023 69.6206 64.4927C69.7872 64.4735 70.005 64.4441 70.2635 64.399C70.7763 64.3097 71.4722 64.1551 72.2587 63.887C73.7955 63.3632 75.923 62.3207 77.5852 60.2403L71.335 55.2468ZM71.3367 35.8641C71.0081 35.4533 71.0726 35.2855 71.2512 36.0063C71.3878 36.5577 71.5242 37.3474 71.6419 38.3588C71.8758 40.3687 72.0001 42.934 72.0001 45.5551C72.0001 48.1762 71.8758 50.7414 71.6419 52.7511C71.5242 53.7623 71.3879 54.5518 71.2513 55.1029C71.0727 55.8236 71.0083 55.6548 71.3377 55.2434L77.5825 60.2437C78.4253 59.1912 78.81 57.86 79.0164 57.0273C79.2648 56.0249 79.4493 54.8699 79.5883 53.6759C79.8677 51.2753 80.0001 48.3873 80.0001 45.5551C80.0001 42.723 79.8677 39.8349 79.5883 37.434C79.4493 36.2399 79.2648 35.0848 79.0164 34.0824C78.81 33.2493 78.4254 31.9186 77.5835 30.8663L71.3367 35.8641ZM69.0142 30.5753C68.7491 34.5665 68.7477 34.5664 68.7463 34.5663C68.7459 34.5663 68.7445 34.5662 68.7437 34.5661C68.7419 34.566 68.7402 34.5659 68.7385 34.5658C68.7352 34.5656 68.7321 34.5653 68.7291 34.5651C68.7232 34.5647 68.718 34.5643 68.7135 34.564C68.7046 34.5633 68.6985 34.5627 68.6951 34.5624C68.6883 34.5618 68.6922 34.5621 68.7056 34.5636C68.7327 34.5668 68.7963 34.5748 68.8884 34.5909C69.0766 34.6238 69.358 34.6857 69.677 34.7945C70.3515 35.0245 70.9476 35.3774 71.336 35.8632L77.5842 30.8672C75.9222 28.7887 73.7953 27.7466 72.2595 27.2228C71.4733 26.9546 70.7778 26.7999 70.2653 26.7103C70.0069 26.6652 69.7893 26.6356 69.6227 26.6164C69.5393 26.6068 69.4682 26.5997 69.4106 26.5945C69.3819 26.5919 69.3565 26.5898 69.3345 26.5881C69.3236 26.5872 69.3135 26.5865 69.3043 26.5858C69.2997 26.5855 69.2953 26.5852 69.2912 26.5849C69.2891 26.5848 69.2871 26.5846 69.2851 26.5845C69.2841 26.5844 69.2827 26.5843 69.2822 26.5843C69.2808 26.5842 69.2794 26.5841 69.0142 30.5753ZM67.5667 34.3711C67.7125 34.386 67.8725 34.4131 68.0464 34.4565L69.9821 26.6942C69.4492 26.5613 68.914 26.4671 68.3794 26.4125L67.5667 34.3711ZM63.973 28.2591V30.3918H71.973V28.2591H63.973ZM40.6763 4.80739C53.4977 4.80739 63.973 15.3095 63.973 28.2591H71.973C71.973 10.934 57.9586 -3.19261 40.6763 -3.19261V4.80739ZM38.2923 4.80737L40.6763 4.80739L40.6763 -3.19261L38.2923 -3.19263L38.2923 4.80737ZM35.9089 4.80737H38.2923V-3.19263H35.9089V4.80737Z" fill="currentColor" mask="url(#path-1-inside-1_60_371)" />
</svg>